<?xml version="1.0" encoding="utf-8"?>
<!-- Generator: Adobe Illustrator 25.2.1, SVG Export Plug-In . SVG Version: 6.00 Build 0)  -->
<svg version="1.1" id="Capa_1" xmlns="http://www.w3.org/2000/svg" xmlns:xlink="http://www.w3.org/1999/xlink" x="0px" y="0px"
	 viewBox="0 0 878.7 311.8" style="enable-background:new 0 0 878.7 311.8;" xml:space="preserve">
<style type="text/css">
	.st0{fill:#FFFFFF;}
	.st1{fill:url(#SVGID_1_);}
	.st2{fill:url(#SVGID_2_);}
	.st3{opacity:0.1;}
	.st4{fill:url(#SVGID_3_);}
	.st5{fill:url(#SVGID_4_);}
	.st6{fill:url(#SVGID_5_);}
	.st7{fill:url(#SVGID_6_);}
	.st8{fill:#DADADA;}
	.st9{fill:url(#SVGID_7_);}
	.st10{fill:url(#SVGID_8_);}
	.st11{fill:#002335;}
	.st12{fill:url(#SVGID_9_);}
	.st13{fill:url(#SVGID_10_);}
	.st14{fill:#014066;}
	.st15{fill:url(#SVGID_11_);}
	.st16{fill:url(#SVGID_12_);}
	.st17{fill:#5C7205;}
	.st18{fill:url(#SVGID_13_);}
	.st19{fill:url(#SVGID_14_);}
	.st20{fill:#8AB62F;}
	.st21{fill:url(#SVGID_15_);}
	.st22{fill:url(#SVGID_16_);}
	.st23{fill:url(#SVGID_17_);}
	.st24{fill:url(#SVGID_18_);}
	.st25{fill:url(#SVGID_19_);}
	.st26{fill:url(#SVGID_20_);}
</style>
<g>
	<path class="st0" d="M257.6,274.8c-5.5,0-5.6,0-6.1,0c-13.2-1.3-22-10.5-24.1-12.9c-1-1.1-8-9.1-10-21.2c-0.3-2.1-0.3-3.2-0.3-12.5
		V225c0,0,0-0.1,0-0.1c0,0,0-0.5,0-1.2c0,0,0-0.1,0-0.1c0-0.3,0-0.9,0-2v-14.9c0,0,0-11.4,0-34.1c0-16,0-51.9,0-85.1
		c-11.6,0-23.2,0-34.8,0c0,28.4,0,56.8,0,85.2c0,22.7,0,34.1,0,34.1v21.5c0,9.3,0,10.4,0.3,12.5c1.9,12.1,9,20.1,10,21.2
		c2.2,2.4,10.9,11.5,24.1,12.9c0.5,0.1,0.6,0,6.1,0c9.5,0,19,0,28.6,0c6.7,0,13.5,0,20.2,0c0.5,0,14.6,0,15.1,0c0-0.1,0-0.1,0-0.2
		c-0.2,0-0.4,0-0.6,0C276.7,274.8,267.2,274.8,257.6,274.8z"/>
	<path class="st0" d="M217.2,155.8c5.8,0,11.6,0,17.4,0c2.7-0.1,8.9,0.1,13.1,4.3c3.8,3.8,4.1,8.9,4.3,12.5c0.7,14.9,0,22.3,0,34.1
		c0,11.4,0,22.7,0,34.1c-5.8,0-11.6,0-17.4,0c-1.6,0-8.2,0-13.1-5c-1.7-1.8-2.8-3.6-3.4-5.1c0,0-1-2.9-1-5.8v3.2
		c0,9.3,0,10.4,0.3,12.5c1.9,12.1,9,20.1,10,21.2c2.2,2.4,10.9,11.5,24.1,12.9c0.5,0.1,0.6,0,6.1,0c9.5,0,19,0,28.6,0
		c0.2,0,0.4,0,0.6,0c0-18.7,0-37.4,0-56c0-10,0-20.1,0-30.1c0-5.3,0-10.6,0-16c0-6.7-2.4-18.6-11.8-26.9c-2.3-2.1-7-5.5-14.5-7.2
		c1.8-0.5,3.8-1.2,6-2.2c4.2-1.9,7.4-4.2,9.8-6.2c0,0,11.3-9.7,10.5-25.7c-0.1-2.4,0.1-2.8,0-19c0-6.3,0-11.5,0-15
		c-1.4-4.4-4.8-13.2-13-21.4c-8.3-8.2-17.3-11.4-21.7-12.7c-11.6,0-23.2,0-34.8,0c0,0,0,0,0,0c0,9.3,0,21.1,0,34.1c0,0,0,0,0,0
		c7,0,13.9,0,20.9,0.1c0.3,0,0.6,0,1.1,0c4.7,0.4,7.9,3.4,8.4,3.9c0,0,4.4,4.3,4.4,10.7c0,1.2,0,2.6,0,4.3c0,0.4,0,1,0,2.1
		c0,0.4,0,4,0,4.4c0,8.5,0,8.3,0,8.5c-0.1,3.4-0.4,9.1-4.3,12.9c-3.5,3.5-8.5,4-10.4,4.2c-0.9,0.1-3,0.1-7.4,0.1c-1.4,0-2.3,0-5.5,0
		c-2.8,0-5.3,0-7.3,0"/>
	<linearGradient id="SVGID_1_" gradientUnits="userSpaceOnUse" x1="217.1468" y1="155.5661" x2="286.806" y2="155.5661">
		<stop  offset="0" style="stop-color:#000000;stop-opacity:0.7"/>
		<stop  offset="0.134" style="stop-color:#484848;stop-opacity:0.552"/>
		<stop  offset="0.268" style="stop-color:#888888;stop-opacity:0.4041"/>
		<stop  offset="0.389" style="stop-color:#BABABA;stop-opacity:0.2706"/>
		<stop  offset="0.4941" style="stop-color:#DEDEDE;stop-opacity:0.1545"/>
		<stop  offset="0.5794" style="stop-color:#F4F4F4;stop-opacity:6.041044e-02"/>
		<stop  offset="0.6341" style="stop-color:#FCFCFC;stop-opacity:0"/>
	</linearGradient>
	<path class="st1" d="M217.2,155.8c5.8,0,11.6,0,17.4,0c2.7-0.1,8.9,0.1,13.1,4.3c3.8,3.8,4.1,8.9,4.3,12.5c0.7,14.9,0,22.3,0,34.1
		c0,11.4,0,22.7,0,34.1c-5.8,0-11.6,0-17.4,0c-1.6,0-8.2,0-13.1-5c-1.7-1.8-2.8-3.6-3.4-5.1c0,0-1-2.9-1-5.8v3.2
		c0,9.3,0,10.4,0.3,12.5c1.9,12.1,9,20.1,10,21.2c2.2,2.4,10.9,11.5,24.1,12.9c0.5,0.1,0.6,0,6.1,0c9.5,0,19,0,28.6,0
		c0.2,0,0.4,0,0.6,0c0-18.7,0-37.4,0-56c0-10,0-20.1,0-30.1c0-5.3,0-10.6,0-16c0-6.7-2.4-18.6-11.8-26.9c-2.3-2.1-7-5.5-14.5-7.2
		c1.8-0.5,3.8-1.2,6-2.2c4.2-1.9,7.4-4.2,9.8-6.2c0,0,11.3-9.7,10.5-25.7c-0.1-2.4,0.1-2.8,0-19c0-6.3,0-11.5,0-15
		c-1.4-4.4-4.8-13.2-13-21.4c-8.3-8.2-17.3-11.4-21.7-12.7c-11.6,0-23.2,0-34.8,0c0,0,0,0,0,0c0,9.3,0,21.1,0,34.1c0,0,0,0,0,0
		c7,0,13.9,0,20.9,0.1c0.3,0,0.6,0,1.1,0c4.7,0.4,7.9,3.4,8.4,3.9c0,0,4.4,4.3,4.4,10.7c0,1.2,0,2.6,0,4.3c0,0.4,0,1,0,2.1
		c0,0.4,0,4,0,4.4c0,8.5,0,8.3,0,8.5c-0.1,3.4-0.4,9.1-4.3,12.9c-3.5,3.5-8.5,4-10.4,4.2c-0.9,0.1-3,0.1-7.4,0.1c-1.4,0-2.3,0-5.5,0
		c-2.8,0-5.3,0-7.3,0"/>
	<path class="st0" d="M182.4,36.3c0,11.4,0,22.7,0,34.1c11.5,0,23.1,0,34.8,0c0-13,0-24.8,0-34.1C205.6,36.3,194,36.3,182.4,36.3z"
		/>
	<path class="st3" d="M259,274.8h-1.4c-5.5,0-5.6,0-6.1,0c-13.2-1.3-22-10.5-24.1-12.9c-1-1.1-8-9.1-10-21.2
		c-0.3-2.1-0.3-3.2-0.3-12.5V225c0,2.9,1,5.8,1,5.8c0.6,1.5,1.6,3.3,3.4,5.1c0.8,0.8,1.6,1.5,2.5,2c0,1.2,0.1,1.9,0.3,2.8
		c1.9,12.1,9,20.1,10,21.2c2.2,2.4,10.9,11.5,24.1,12.9C258.5,274.8,258.7,274.8,259,274.8z"/>
	<rect x="217.2" y="121.7" class="st3" width="7.1" height="34.1"/>
	<rect x="217.2" y="36.3" class="st3" width="7.1" height="34.1"/>
</g>
<path class="st20" d="M34.8,87.5v121.9H0V87.5H34.8z"/>
<path class="st20" d="M81.2,148.5v60.9H46.4V87.5h34.8l43.5,60.9V87.5h34.8v121.9h-34.8L81.2,148.5z"/>
<path class="st0" d="M352.1,192l-6.2,17.4h-34.8l43.5-121.9h43.5l43.5,121.9h-34.8l-6.2-17.4H352.1z M376.4,124.1l-11.8,33.1h23.7
	L376.4,124.1z"/>
<path class="st0" d="M481,174.6h34.8v34.8h-69.6V87.5H481V174.6z"/>
<path class="st0" d="M561.2,192l-6.2,17.4h-34.8l43.5-121.9h43.5l43.5,121.9H616l-6.2-17.4H561.2z M585.5,124.1l-11.8,33.1h23.7
	L585.5,124.1z"/>
<path class="st0" d="M689.3,148.5v60.9h-34.8V87.5h34.8l43.5,60.9V87.5h34.8v121.9h-34.8L689.3,148.5z"/>
<path class="st0" d="M878.7,87.5l-47.9,87h47.9v34.8H774.3l47.9-87h-47.9V87.5H878.7z"/>
<rect x="0" y="220.6" class="st0" width="159.5" height="10.9"/>
<g>
	<path class="st0" d="M338.9,275l10.7-25.9h2.4l10.7,25.9h-2.5l-3.2-7.9h-12.1l-3.2,7.9H338.9z M350.8,252.2l-5.2,12.7H356
		L350.8,252.2z"/>
	<path class="st0" d="M374.4,249.1c1.9,0,3.5,0.7,4.9,2c1.3,1.3,2,2.9,2,4.8c0,1.6-0.5,3-1.4,4.2c-1,1.2-2.2,2-3.7,2.3l6.1,12.6
		h-2.6l-6-12.3h-5.2V275H366v-25.9H374.4z M368.5,260.5h5.6c1.3,0,2.4-0.5,3.2-1.4c0.9-0.9,1.3-2,1.3-3.3s-0.4-2.4-1.3-3.2
		c-0.9-0.9-2-1.3-3.2-1.3h-5.6V260.5z"/>
	<path class="st0" d="M406.8,272.2c-1.2,1-2.5,1.8-4,2.4c-1.5,0.6-3.1,0.9-4.8,0.9c-1.9,0-3.6-0.4-5.2-1.1c-1.6-0.7-3-1.7-4.3-2.9
		c-1.2-1.2-2.2-2.6-2.9-4.3c-0.7-1.6-1.1-3.4-1.1-5.2s0.4-3.6,1.1-5.2c0.7-1.6,1.7-3,2.9-4.3c1.2-1.2,2.6-2.2,4.3-2.9
		c1.6-0.7,3.4-1.1,5.2-1.1c1.9,0,3.6,0.4,5.2,1.1c1.6,0.7,3,1.7,4.3,2.9c1.2,1.2,2.2,2.6,2.9,4.3c0.7,1.6,1.1,3.4,1.1,5.2
		c0,1.6-0.3,3.2-0.8,4.6c-0.5,1.4-1.3,2.7-2.2,3.9l2.9,3l-1.6,1.6L406.8,272.2z M406.6,268.8c0.7-0.9,1.3-2,1.7-3.1
		c0.4-1.1,0.6-2.4,0.6-3.7c0-1.5-0.3-3-0.9-4.3c-0.6-1.4-1.4-2.5-2.3-3.5c-1-1-2.1-1.8-3.5-2.4c-1.3-0.6-2.7-0.9-4.3-0.9
		c-1.5,0-2.9,0.3-4.3,0.9c-1.3,0.6-2.5,1.4-3.5,2.4c-1,1-1.8,2.2-2.3,3.5c-0.6,1.4-0.9,2.8-0.9,4.3c0,1.6,0.3,3,0.9,4.4
		c0.6,1.4,1.4,2.5,2.3,3.5c1,1,2.1,1.8,3.5,2.4c1.3,0.6,2.7,0.9,4.3,0.9c1.4,0,2.7-0.2,3.9-0.7c1.2-0.5,2.3-1.1,3.2-2l-4.6-4.6
		l1.6-1.6L406.6,268.8z"/>
	<path class="st0" d="M425.3,275.5c-2.5,0-4.6-0.9-6.4-2.6c-1.7-1.7-2.6-3.9-2.6-6.4v-17.4h2.5v17.4c0,1.9,0.6,3.5,1.9,4.8
		c1.3,1.3,2.8,1.9,4.6,1.9c1.8,0,3.3-0.6,4.6-1.9c1.3-1.3,1.9-2.9,1.9-4.8v-17.4h2.5v17.4c0,1.3-0.2,2.5-0.7,3.6
		c-0.5,1.1-1.1,2-1.9,2.8c-0.8,0.8-1.8,1.4-2.8,1.9C427.7,275.2,426.5,275.5,425.3,275.5z"/>
	<path class="st0" d="M442.8,249.1V275h-2.5v-25.9H442.8z"/>
	<path class="st0" d="M446.5,251.4v-2.3h16.9v2.3h-7.2V275h-2.5v-23.6H446.5z"/>
	<path class="st0" d="M469.5,260.6h10.8v2.3h-10.8v9.8h12v2.3H467v-25.9h14v2.3h-11.5V260.6z"/>
	<path class="st0" d="M498.3,275.4c-1.9,0-3.6-0.4-5.2-1.1c-1.6-0.7-3-1.7-4.3-2.9c-1.2-1.2-2.2-2.6-2.9-4.3
		c-0.7-1.6-1.1-3.4-1.1-5.2s0.4-3.6,1.1-5.2c0.7-1.6,1.7-3.1,2.9-4.3c1.2-1.2,2.6-2.2,4.3-2.9c1.6-0.7,3.4-1.1,5.2-1.1
		c2.1,0,4.1,0.5,5.9,1.4c1.8,0.9,3.3,2.2,4.6,3.7l-2.1,1.2c-1-1.2-2.2-2.2-3.7-2.9c-1.4-0.7-3-1.1-4.7-1.1c-1.5,0-2.9,0.3-4.3,0.9
		c-1.3,0.6-2.5,1.4-3.5,2.4c-1,1-1.8,2.2-2.3,3.5c-0.6,1.4-0.9,2.8-0.9,4.3c0,1.5,0.3,3,0.9,4.3c0.6,1.4,1.4,2.5,2.3,3.5
		c1,1,2.1,1.8,3.5,2.4c1.3,0.6,2.7,0.9,4.3,0.9c1.7,0,3.3-0.4,4.7-1.1c1.4-0.7,2.7-1.7,3.7-2.9l2.1,1.2c-1.2,1.6-2.7,2.8-4.6,3.7
		C502.5,275,500.5,275.4,498.3,275.4z"/>
	<path class="st0" d="M510,251.4v-2.3h16.9v2.3h-7.2V275h-2.5v-23.6H510z"/>
	<path class="st0" d="M539.1,275.5c-2.5,0-4.6-0.9-6.4-2.6c-1.7-1.7-2.6-3.9-2.6-6.4v-17.4h2.5v17.4c0,1.9,0.6,3.5,1.9,4.8
		c1.3,1.3,2.8,1.9,4.6,1.9c1.8,0,3.3-0.6,4.6-1.9c1.3-1.3,1.9-2.9,1.9-4.8v-17.4h2.5v17.4c0,1.3-0.2,2.5-0.7,3.6
		c-0.5,1.1-1.1,2-1.9,2.8c-0.8,0.8-1.8,1.4-2.8,1.9C541.6,275.2,540.4,275.5,539.1,275.5z"/>
	<path class="st0" d="M562.6,249.1c1.9,0,3.5,0.7,4.9,2c1.3,1.3,2,2.9,2,4.8c0,1.6-0.5,3-1.4,4.2c-1,1.2-2.2,2-3.7,2.3l6.1,12.6
		h-2.6l-6-12.3h-5.2V275h-2.5v-25.9H562.6z M556.7,260.5h5.6c1.3,0,2.4-0.5,3.2-1.4c0.9-0.9,1.3-2,1.3-3.3s-0.4-2.4-1.3-3.2
		c-0.9-0.9-2-1.3-3.2-1.3h-5.6V260.5z"/>
	<path class="st0" d="M571.6,275l10.7-25.9h2.4l10.7,25.9h-2.5l-3.2-7.9h-12.1l-3.2,7.9H571.6z M583.4,252.2l-5.2,12.7h10.4
		L583.4,252.2z"/>
	<path class="st0" d="M611.3,260.6h10.8v2.3h-10.8v9.8h12v2.3h-14.5v-25.9h14v2.3h-11.5V260.6z"/>
	<path class="st0" d="M628.3,275v-25.9h3.2l16.2,22.9v-22.9h2.5V275H647l-16.3-22.9V275H628.3z"/>
	<path class="st0" d="M669.3,260.6h10.8v2.3h-10.8v9.8h12v2.3h-14.5v-25.9h14v2.3h-11.5V260.6z"/>
	<path class="st0" d="M707,272.2c-1.2,1-2.5,1.8-4,2.4c-1.5,0.6-3.1,0.9-4.8,0.9c-1.9,0-3.6-0.4-5.2-1.1c-1.6-0.7-3-1.7-4.3-2.9
		c-1.2-1.2-2.2-2.6-2.9-4.3c-0.7-1.6-1.1-3.4-1.1-5.2s0.4-3.6,1.1-5.2c0.7-1.6,1.7-3,2.9-4.3c1.2-1.2,2.6-2.2,4.3-2.9
		c1.6-0.7,3.4-1.1,5.2-1.1c1.9,0,3.6,0.4,5.2,1.1c1.6,0.7,3,1.7,4.3,2.9c1.2,1.2,2.2,2.6,2.9,4.3c0.7,1.6,1.1,3.4,1.1,5.2
		c0,1.6-0.3,3.2-0.8,4.6c-0.5,1.4-1.3,2.7-2.2,3.9l2.9,3l-1.6,1.6L707,272.2z M706.8,268.8c0.7-0.9,1.3-2,1.7-3.1
		c0.4-1.1,0.6-2.4,0.6-3.7c0-1.5-0.3-3-0.9-4.3c-0.6-1.4-1.4-2.5-2.3-3.5c-1-1-2.1-1.8-3.5-2.4c-1.3-0.6-2.7-0.9-4.3-0.9
		c-1.5,0-2.9,0.3-4.3,0.9c-1.3,0.6-2.5,1.4-3.5,2.4c-1,1-1.8,2.2-2.3,3.5c-0.6,1.4-0.9,2.8-0.9,4.3c0,1.6,0.3,3,0.9,4.4
		c0.6,1.4,1.4,2.5,2.3,3.5c1,1,2.1,1.8,3.5,2.4c1.3,0.6,2.7,0.9,4.3,0.9c1.4,0,2.7-0.2,3.9-0.7c1.2-0.5,2.3-1.1,3.2-2l-4.6-4.6
		l1.6-1.6L706.8,268.8z"/>
	<path class="st0" d="M725.4,275.5c-2.5,0-4.6-0.9-6.4-2.6c-1.7-1.7-2.6-3.9-2.6-6.4v-17.4h2.5v17.4c0,1.9,0.6,3.5,1.9,4.8
		c1.3,1.3,2.8,1.9,4.6,1.9c1.8,0,3.3-0.6,4.6-1.9c1.3-1.3,1.9-2.9,1.9-4.8v-17.4h2.5v17.4c0,1.3-0.2,2.5-0.7,3.6
		c-0.5,1.1-1.1,2-1.9,2.8c-0.8,0.8-1.8,1.4-2.8,1.9C727.9,275.2,726.7,275.5,725.4,275.5z"/>
	<path class="st0" d="M743,249.1V275h-2.5v-25.9H743z"/>
	<path class="st0" d="M761.6,272.7v2.3h-12.1v-25.9h2.5v23.6H761.6z"/>
	<path class="st0" d="M767.6,249.1V275h-2.5v-25.9H767.6z"/>
	<path class="st0" d="M789.1,255.4c0,1.3-0.3,2.4-0.9,3.4c-0.6,1-1.4,1.8-2.3,2.4c1.3,0.5,2.4,1.4,3.2,2.6c0.8,1.2,1.2,2.6,1.2,4.1
		c0,2-0.7,3.6-2,5c-1.3,1.4-3.1,2-5.3,2h-8.9v-25.9h8.2c2.1,0,3.8,0.6,5,1.8C788.5,252.1,789.1,253.6,789.1,255.4z M786.6,255.8
		c0-1.3-0.4-2.4-1.3-3.3c-0.8-0.8-2-1.3-3.4-1.3h-5.4v9.2h5.5c1.4,0,2.5-0.4,3.3-1.3C786.2,258.3,786.6,257.2,786.6,255.8z
		 M787.7,267.8c0-1.4-0.4-2.6-1.3-3.6c-0.9-1-2.1-1.5-3.7-1.5h-6.1v10.2h6.2c1.5,0,2.7-0.5,3.6-1.4
		C787.3,270.4,787.7,269.2,787.7,267.8z"/>
	<path class="st0" d="M804,249.1c1.9,0,3.5,0.7,4.9,2c1.3,1.3,2,2.9,2,4.8c0,1.6-0.5,3-1.4,4.2c-1,1.2-2.2,2-3.7,2.3l6.1,12.6h-2.6
		l-6-12.3h-5.2V275h-2.5v-25.9H804z M798.1,260.5h5.6c1.3,0,2.4-0.5,3.2-1.4c0.9-0.9,1.3-2,1.3-3.3s-0.4-2.4-1.3-3.2
		c-0.9-0.9-2-1.3-3.2-1.3h-5.6V260.5z"/>
	<path class="st0" d="M818.5,249.1V275h-2.5v-25.9H818.5z"/>
	<path class="st0" d="M836.9,248.6c1.9,0,3.6,0.4,5.2,1.1c1.6,0.7,3,1.7,4.3,2.9c1.2,1.2,2.2,2.6,2.9,4.3c0.7,1.6,1.1,3.4,1.1,5.2
		c0,1.9-0.4,3.6-1.1,5.2c-0.7,1.6-1.7,3-2.9,4.3c-1.2,1.2-2.6,2.2-4.3,2.9c-1.6,0.7-3.4,1.1-5.2,1.1c-1.9,0-3.6-0.4-5.2-1.1
		c-1.6-0.7-3-1.7-4.3-2.9c-1.2-1.2-2.2-2.6-2.9-4.3c-0.7-1.6-1.1-3.4-1.1-5.2c0-1.9,0.4-3.6,1.1-5.2c0.7-1.6,1.7-3.1,2.9-4.3
		c1.2-1.2,2.6-2.2,4.3-2.9C833.3,249,835,248.6,836.9,248.6z M826,262.1c0,1.5,0.3,3,0.9,4.3c0.6,1.4,1.4,2.5,2.3,3.5
		c1,1,2.1,1.8,3.5,2.4c1.3,0.6,2.7,0.9,4.3,0.9c1.5,0,2.9-0.3,4.3-0.9c1.3-0.6,2.5-1.4,3.5-2.4c1-1,1.8-2.2,2.3-3.5
		c0.6-1.4,0.9-2.8,0.9-4.3c0-1.5-0.3-3-0.9-4.3c-0.6-1.4-1.4-2.5-2.3-3.5c-1-1-2.1-1.8-3.5-2.4c-1.3-0.6-2.7-0.9-4.3-0.9
		c-1.5,0-2.9,0.3-4.3,0.9c-1.3,0.6-2.5,1.4-3.5,2.4c-1,1-1.8,2.2-2.3,3.5C826.2,259.1,826,260.5,826,262.1z"/>
</g>
</svg>
