<?xml version="1.0" encoding="utf-8"?>
<!-- Generator: Adobe Illustrator 25.2.1, SVG Export Plug-In . SVG Version: 6.00 Build 0)  -->
<svg version="1.1" id="Capa_1" xmlns="http://www.w3.org/2000/svg" xmlns:xlink="http://www.w3.org/1999/xlink" x="0px" y="0px"
	 viewBox="0 0 708.6 1500" style="enable-background:new 0 0 708.6 1500;" xml:space="preserve">
<style type="text/css">
	.st0{fill:#FFFFFF;}
	.st1{fill:url(#SVGID_1_);}
	.st2{fill:url(#SVGID_2_);}
	.st3{opacity:0.1;}
	.st4{fill:url(#SVGID_3_);}
	.st5{fill:url(#SVGID_4_);}
	.st6{fill:url(#SVGID_5_);}
	.st7{fill:url(#SVGID_6_);}
	.st8{fill:#DADADA;}
	.st9{fill:url(#SVGID_7_);}
	.st10{fill:url(#SVGID_8_);}
	.st11{fill:#002335;}
	.st12{fill:url(#SVGID_9_);}
	.st13{fill:url(#SVGID_10_);}
	.st14{fill:#014066;}
	.st15{fill:url(#SVGID_11_);}
	.st16{fill:url(#SVGID_12_);}
	.st17{fill:#5C7205;}
	.st18{fill:url(#SVGID_13_);}
	.st19{fill:url(#SVGID_14_);}
	.st20{fill:#8AB62F;}
	.st21{fill:url(#SVGID_15_);}
	.st22{fill:url(#SVGID_16_);}
	.st23{fill:url(#SVGID_17_);}
	.st24{fill:url(#SVGID_18_);}
	.st25{fill:url(#SVGID_19_);}
	.st26{fill:url(#SVGID_20_);}
</style>
<path class="st20" d="M498.3,1494c-34.2,0.1-34.7,0.1-38-0.2c-82.6-8.3-137.1-65.3-150.6-80.3c-6-6.7-50.1-57-62.2-132.4
	c-2.1-13.2-2.1-19.7-2-78.1v-20c0-0.2,0-0.3,0-0.5c0,0,0-3.3,0-7.6c0,0,0-0.6,0-0.6c0-1.6,0-5.9,0-12.3v-93.3c0,0,0-70.9,0-212.7
	c0-100.2,0-323.9,0-531.5c-72.4,0-144.8,0-217.2,0c0,177.4,0,354.7,0,532.1c0,141.9,0,212.9,0,212.9v134.5c0,58.4-0.1,64.9,2,78.1
	c12.1,75.5,56.1,125.8,62.2,132.5c13.5,15,68,72.1,150.6,80.4c3.3,0.3,3.8,0.3,38,0.2c59.4-0.1,118.8,0,178.3,0
	c42.1,0,84.2,0,126.3,0c3.2,0,91.2,0,94.4,0c0-0.3,0-0.7,0-1c-1.2,0-2.3,0-3.5,0C617.1,1494,557.7,1493.9,498.3,1494z"/>
<path class="st20" d="M245.5,751.1c36.3,0,72.6,0,108.9,0c16.6-0.6,55.3,0.5,81.8,27.2c23.5,23.7,25.5,55.9,26.6,78.1
	c4.5,93.1,0,139.3,0,212.9c0,71,0,141.9,0,212.9c-36.1,0-72.3,0-108.4,0c-10,0.2-51.1-0.2-81.6-31.1c-10.8-10.9-17.2-22.6-21-31.7
	c0,0-6.2-18.1-6.3-36.4v20c0,58.3-0.1,64.9,2,78.1c12.1,75.4,56.1,125.7,62.2,132.4c13.4,15,68,72,150.6,80.3
	c3.3,0.3,3.8,0.3,38,0.2c59.4-0.1,118.8,0,178.3,0c1.2,0,2.3,0,3.5,0c0-116.6,0-233.3,0-349.9c0-62.6,0-125.3,0-187.9
	c0-33.2,0-66.5,0-99.7c0-41.8-14.9-115.9-73.6-167.8c-14.7-13-43.6-34.4-90.4-45c11.3-3.2,23.9-7.5,37.2-13.5
	c26.2-11.9,46.4-26.3,61-38.8c0,0,70.6-60.4,65.9-160.5c-0.7-15,0.8-17.6,0.3-118.9c-0.2-39.5-0.3-72-0.3-93.9
	c-8.5-27.3-29.7-82.6-81.5-133.5C546.4,33.2,490.2,12.9,462.7,5c-72.4,0-144.8,0-217.2,0c0,0,0,0,0,0c0,57.8,0,131.9,0,212.8
	c0,0,0,0,0,0c43.5,0.1,87,0.3,130.3,0.6c1.6,0,3.9,0,6.7,0.2c29.4,2.3,49.5,21.4,52.8,24.7c0,0,27.4,26.6,27.5,66.7
	c0,7.4,0,16.5,0,27c0,2.6,0,6,0,13.2c0,2.8,0,24.7,0,27.3c0,52.9,0,51.7,0,53.2c-0.9,21.1-2.8,56.6-26.6,80.4
	c-21.6,21.6-52.9,24.9-64.9,26.2c-5.5,0.6-19,0.7-45.9,0.9c-9,0.1-14.5,0.1-34.3,0c-17.8,0-33.2,0-45.5,0"/>
<linearGradient id="SVGID_1_" gradientUnits="userSpaceOnUse" x1="245.4375" y1="749.4974" x2="680.3848" y2="749.4974">
	<stop  offset="0" style="stop-color:#000000;stop-opacity:0.5"/>
	<stop  offset="6.037706e-03" style="stop-color:#020201;stop-opacity:0.5048"/>
	<stop  offset="0.1732" style="stop-color:#324211;stop-opacity:0.6365"/>
	<stop  offset="0.3254" style="stop-color:#58741E;stop-opacity:0.7566"/>
	<stop  offset="0.4578" style="stop-color:#739827;stop-opacity:0.861"/>
	<stop  offset="0.5652" style="stop-color:#84AE2D;stop-opacity:0.9457"/>
	<stop  offset="0.6341" style="stop-color:#8AB62F"/>
</linearGradient>
<path class="st1" d="M245.5,751.1c36.3,0,72.6,0,108.9,0c16.6-0.6,55.3,0.5,81.8,27.2c23.5,23.7,25.5,55.9,26.6,78.1
	c4.5,93.1,0,139.3,0,212.9c0,71,0,141.9,0,212.9c-36.1,0-72.3,0-108.4,0c-10,0.2-51.1-0.2-81.6-31.1c-10.8-10.9-17.2-22.6-21-31.7
	c0,0-6.2-18.1-6.3-36.4v20c0,58.3-0.1,64.9,2,78.1c12.1,75.4,56.1,125.7,62.2,132.4c13.4,15,68,72,150.6,80.3
	c3.3,0.3,3.8,0.3,38,0.2c59.4-0.1,118.8,0,178.3,0c1.2,0,2.3,0,3.5,0c0-116.6,0-233.3,0-349.9c0-62.6,0-125.3,0-187.9
	c0-33.2,0-66.5,0-99.7c0-41.8-14.9-115.9-73.6-167.8c-14.7-13-43.6-34.4-90.4-45c11.3-3.2,23.9-7.5,37.2-13.5
	c26.2-11.9,46.4-26.3,61-38.8c0,0,70.6-60.4,65.9-160.5c-0.7-15,0.8-17.6,0.3-118.9c-0.2-39.5-0.3-72-0.3-93.9
	c-8.5-27.3-29.7-82.6-81.5-133.5C546.4,33.2,490.2,12.9,462.7,5c-72.4,0-144.8,0-217.2,0c0,0,0,0,0,0c0,57.8,0,131.9,0,212.8
	c0,0,0,0,0,0c43.5,0.1,87,0.3,130.3,0.6c1.6,0,3.9,0,6.7,0.2c29.4,2.3,49.5,21.4,52.8,24.7c0,0,27.4,26.6,27.5,66.7
	c0,7.4,0,16.5,0,27c0,2.6,0,6,0,13.2c0,2.8,0,24.7,0,27.3c0,52.9,0,51.7,0,53.2c-0.9,21.1-2.8,56.6-26.6,80.4
	c-21.6,21.6-52.9,24.9-64.9,26.2c-5.5,0.6-19,0.7-45.9,0.9c-9,0.1-14.5,0.1-34.3,0c-17.8,0-33.2,0-45.5,0"/>
<path class="st20" d="M28.2,5c0,70.9,0,141.9,0,212.8c72.1-0.2,144.5-0.2,217.2,0c0-80.9,0-155,0-212.8C173,5,100.6,5,28.2,5z"/>
<path class="st3" d="M506.8,1493.9h-8.6c-34.2,0.1-34.7,0.1-38-0.2c-82.6-8.3-137.1-65.3-150.6-80.3c-6.1-6.7-50.1-57-62.2-132.4
	c-2.1-13.2-2.1-19.7-2-78.1v-20.1c0.1,18.3,6.3,36.5,6.3,36.5c3.8,9.1,10.2,20.8,21,31.7c5,5,10.2,9.3,15.6,12.8
	c0.3,7.4,0.8,11.7,1.7,17.2c12.1,75.4,56.1,125.7,62.1,132.4c13.5,15,68,72,150.6,80.3C503.9,1493.8,504.7,1493.9,506.8,1493.9z"/>
<rect x="245.5" y="538.2" class="st3" width="44.5" height="212.9"/>
<rect x="245.5" y="5" class="st3" width="44.5" height="212.9"/>
</svg>
